<svg xmlns="http://www.w3.org/2000/svg" width="700" height="400" style="background:#fff;font-family:Arial,sans-serif;">
  <text x="350" y="35" text-anchor="middle" font-size="16" font-weight="bold" fill="#333">Firewall Request Trends (Last 7 Days)</text>
  <line x1="65" y1="340.0" x2="670" y2="340.0" stroke="#eee" stroke-width="1"/>
  <text x="62" y="344.0" text-anchor="end" font-size="11" fill="#666">0</text>
  <line x1="65" y1="270.0" x2="670" y2="270.0" stroke="#eee" stroke-width="1"/>
  <text x="62" y="274.0" text-anchor="end" font-size="11" fill="#666">934</text>
  <line x1="65" y1="200.0" x2="670" y2="200.0" stroke="#eee" stroke-width="1"/>
  <text x="62" y="204.0" text-anchor="end" font-size="11" fill="#666">1868</text>
  <line x1="65" y1="130.0" x2="670" y2="130.0" stroke="#eee" stroke-width="1"/>
  <text x="62" y="134.0" text-anchor="end" font-size="11" fill="#666">2802</text>
  <line x1="65" y1="60.0" x2="670" y2="60.0" stroke="#eee" stroke-width="1"/>
  <text x="62" y="64.0" text-anchor="end" font-size="11" fill="#666">3736</text>
  <line x1="70" y1="60" x2="70" y2="340" stroke="#999" stroke-width="1.5"/>
  <line x1="70" y1="340" x2="670" y2="340" stroke="#999" stroke-width="1.5"/>
  <rect x="113.0" y="310.4" width="105.0" height="29.6" fill="#2ecc71" opacity="0.85" rx="2"/>
  <text x="165.5" y="306.4" text-anchor="middle" font-size="10" fill="#333">395</text>
  <rect x="222.0" y="339.9" width="105.0" height="0.1" fill="#e74c3c" opacity="0.85" rx="2"/>
  <text x="274.5" y="335.9" text-anchor="middle" font-size="10" fill="#333">1</text>
  <text x="220.0" y="358" text-anchor="middle" font-size="11" fill="#555">2026-07-02</text>
  <rect x="413.0" y="106.7" width="105.0" height="233.3" fill="#2ecc71" opacity="0.85" rx="2"/>
  <text x="465.5" y="102.7" text-anchor="middle" font-size="10" fill="#333">3114</text>
  <rect x="522.0" y="339.4" width="105.0" height="0.6" fill="#e74c3c" opacity="0.85" rx="2"/>
  <text x="574.5" y="335.4" text-anchor="middle" font-size="10" fill="#333">8</text>
  <text x="520.0" y="358" text-anchor="middle" font-size="11" fill="#555">2026-07-03</text>
  <rect x="80" y="45" width="14" height="14" fill="#2ecc71" rx="2"/>
  <text x="98" y="56" font-size="12" fill="#555">Allowed</text>
  <rect x="170" y="45" width="14" height="14" fill="#e74c3c" rx="2"/>
  <text x="188" y="56" font-size="12" fill="#555">Blocked</text>
  <text x="25" y="200" text-anchor="middle" font-size="12" fill="#666" transform="rotate(-90,25,200)">Requests</text>
</svg>